<svg width="32" height="32" viewBox="0 0 32 32" fill="none" xmlns="http://www.w3.org/2000/svg">
  <!-- Background circle -->
  <circle cx="16" cy="16" r="16" fill="#059669"/>
  
  <!-- Calculator body -->
  <rect x="7" y="6" width="18" height="20" rx="2" fill="white"/>
  <rect x="8" y="7" width="16" height="18" rx="1" fill="#f8fafc"/>
  
  <!-- Display screen -->
  <rect x="9" y="9" width="14" height="4" rx="1" fill="#1e293b"/>
  
  <!-- Display text (showing "CLT") -->
  <text x="16" y="12.5" text-anchor="middle" fill="white" font-family="monospace" font-size="3" font-weight="bold">CLT</text>
  
  <!-- Calculator buttons grid -->
  <!-- Row 1 -->
  <rect x="9" y="15" width="2.5" height="2" rx="0.3" fill="#059669"/>
  <rect x="12.25" y="15" width="2.5" height="2" rx="0.3" fill="#059669"/>
  <rect x="15.5" y="15" width="2.5" height="2" rx="0.3" fill="#059669"/>
  <rect x="18.75" y="15" width="3.25" height="2" rx="0.3" fill="#dc2626"/>
  
  <!-- Row 2 -->
  <rect x="9" y="17.5" width="2.5" height="2" rx="0.3" fill="#6b7280"/>
  <rect x="12.25" y="17.5" width="2.5" height="2" rx="0.3" fill="#6b7280"/>
  <rect x="15.5" y="17.5" width="2.5" height="2" rx="0.3" fill="#6b7280"/>
  <rect x="18.75" y="17.5" width="3.25" height="2" rx="0.3" fill="#f59e0b"/>
  
  <!-- Row 3 -->
  <rect x="9" y="20" width="2.5" height="2" rx="0.3" fill="#6b7280"/>
  <rect x="12.25" y="20" width="2.5" height="2" rx="0.3" fill="#6b7280"/>
  <rect x="15.5" y="20" width="2.5" height="2" rx="0.3" fill="#6b7280"/>
  <rect x="18.75" y="20" width="3.25" height="2" rx="0.3" fill="#f59e0b"/>
  
  <!-- Row 4 -->
  <rect x="9" y="22.5" width="5.75" height="2" rx="0.3" fill="#374151"/>
  <rect x="15.5" y="22.5" width="2.5" height="2" rx="0.3" fill="#6b7280"/>
  <rect x="18.75" y="22.5" width="3.25" height="2" rx="0.3" fill="#059669"/>
  
  <!-- Small icons on buttons -->
  <!-- Plus sign on green button -->
  <line x1="19.5" y1="16" x2="21.5" y2="16" stroke="white" stroke-width="0.3"/>
  <line x1="20.5" y1="15" x2="20.5" y2="17" stroke="white" stroke-width="0.3"/>
  
  <!-- Equals sign on bottom green button -->
  <line x1="19.5" y1="23.2" x2="21.5" y2="23.2" stroke="white" stroke-width="0.2"/>
  <line x1="19.5" y1="23.8" x2="21.5" y2="23.8" stroke="white" stroke-width="0.2"/>
</svg>